<?xml version="1.0" encoding="UTF-8" standalone="no"?>
<svg
   xmlns:dc="http://purl.org/dc/elements/1.1/"
   xmlns:cc="http://creativecommons.org/ns#"
   xmlns:rdf="http://www.w3.org/1999/02/22-rdf-syntax-ns#"
   xmlns:svg="http://www.w3.org/2000/svg"
   xmlns="http://www.w3.org/2000/svg"
   xmlns:sodipodi="http://sodipodi.sourceforge.net/DTD/sodipodi-0.dtd"
   xmlns:inkscape="http://www.inkscape.org/namespaces/inkscape"
   version="1.1"
   height="64.002373"
   width="400"
   id="svg2"
   inkscape:version="0.48.4 r9939"
   sodipodi:docname="logo.svg"
   inkscape:export-filename="/home/daniel/Documents/test/newsforbetty/a_href/logo/logo_small.png"
   inkscape:export-xdpi="45"
   inkscape:export-ydpi="45">
  <metadata
     id="metadata54">
    <rdf:RDF>
      <cc:Work
         rdf:about="">
        <dc:format>image/svg+xml</dc:format>
        <dc:type
           rdf:resource="http://purl.org/dc/dcmitype/StillImage" />
        <dc:title></dc:title>
      </cc:Work>
    </rdf:RDF>
  </metadata>
  <defs
     id="defs52" />
  <sodipodi:namedview
     pagecolor="#ffffff"
     bordercolor="#666666"
     borderopacity="1"
     objecttolerance="10"
     gridtolerance="10"
     guidetolerance="10"
     inkscape:pageopacity="0"
     inkscape:pageshadow="2"
     inkscape:window-width="1600"
     inkscape:window-height="853"
     id="namedview50"
     showgrid="false"
     fit-margin-top="9.95"
     fit-margin-left="17"
     fit-margin-right="17"
     fit-margin-bottom="10"
     inkscape:zoom="2.2973967"
     inkscape:cx="184.07057"
     inkscape:cy="32.452168"
     inkscape:window-x="0"
     inkscape:window-y="0"
     inkscape:window-maximized="1"
     inkscape:current-layer="svg2" />
  <rect
     style="fill:#000000;fill-opacity:1;stroke:#ffffff;stroke-width:1.99998795999999990;stroke-linecap:square;stroke-linejoin:round;stroke-miterlimit:4;stroke-opacity:1;stroke-dasharray:none;stroke-dashoffset:0"
     id="rect3901"
     width="398"
     height="62.000011"
     x="0.99966681"
     y="1.0026937"
     rx="10"
     ry="10"
     inkscape:export-xdpi="90"
     inkscape:export-ydpi="90"
     inkscape:export-filename="/home/daniel/Documents/test/newsforbetty/a_href/logo/logo.png" />
  <g
     id="g3887"
     transform="translate(-3,-0.45)"
     style="fill:#ffffff;fill-opacity:1">
    <path
       inkscape:connector-curvature="0"
       id="path22"
       d="M 20.19621,53.23798 C 20.80662,48.13666 21.11183,40.8771 21.11183,31.45928 21.11183,22.04147 20.74122,15.23971 20,11.05401 21.13363,10.618 22.10375,10.4 22.91037,10.4 c 0.80662,0 1.82034,0.0436 3.04117,0.1308 0.82842,3.13927 3.21557,7.90268 7.16146,14.29023 3.94589,6.38755 8.05528,12.56799 12.32818,18.54132 0.1308,-3.66248 0.1962,-7.19416 0.1962,-10.59504 0,-10.28983 -0.37061,-17.5276 -1.11183,-21.7133 C 45.65918,10.618 46.6293,10.4 47.43592,10.4 c 0.80662,0 1.82034,0.0436 3.04117,0.1308 -0.61041,4.83971 -0.91562,12.49169 -0.91562,22.95592 0,10.46424 0.37061,16.87359 1.11183,19.22804 -1.30803,0.43601 -2.25635,0.65401 -2.84496,0.65401 -0.58861,0 -1.62414,-0.0436 -3.10657,-0.1308 -0.30521,-1.35163 -1.59144,-3.80419 -3.85869,-7.35767 -2.26725,-3.55348 -5.09042,-7.79368 -8.46949,-12.72059 -3.37908,-4.92691 -5.80983,-8.6112 -7.29227,-11.05285 -0.0436,1.87484 -0.0654,4.75251 -0.0654,8.633 0,12.29548 0.37061,19.62045 1.11183,21.9749 -1.30803,0.43601 -2.25635,0.65401 -2.84496,0.65401 -0.58861,0 -1.62414,-0.0436 -3.10657,-0.1308 z"
       style="fill:#ffffff;fill-opacity:1" />
    <path
       inkscape:connector-curvature="0"
       id="path24"
       d="m 66.17346,49.0221 c 1.17387,0.10062 3.203,0.15093 6.08737,0.15093 2.88437,0 5.21535,-0.15093 6.99293,-0.45278 0.26831,0.87202 0.40247,1.71889 0.40247,2.5406 0,0.82171 -0.06708,1.53442 -0.20124,2.13813 -0.63725,-0.1677 -1.97881,-0.32701 -4.02471,-0.47793 -2.04589,-0.15093 -4.34333,-0.22639 -6.89231,-0.22639 -2.54898,0 -4.94704,0.11739 -7.19416,0.35216 0.46955,-4.62841 0.70432,-10.24623 0.70432,-16.85346 0,-6.60723 -0.31862,-11.88966 -0.95587,-15.84728 2.24713,0.23477 4.66195,0.35216 7.24447,0.35216 2.58252,0 4.88834,-0.0755 6.91747,-0.22639 2.02912,-0.15093 3.34554,-0.31024 3.94924,-0.47793 0.13416,0.60371 0.20124,1.27449 0.20124,2.01235 0,0.73786 -0.13416,1.5428 -0.40247,2.41482 -1.77758,-0.30185 -4.07502,-0.45278 -6.89231,-0.45278 -2.8173,0 -4.81288,0.0503 -5.98675,0.15093 -0.20124,1.91174 -0.30185,5.36628 -0.30185,10.36362 0.70432,0.0335 2.39805,0.0503 5.08119,0.0503 2.68314,0 4.86319,-0.18447 6.54015,-0.5534 0.1677,1.07326 0.25154,1.95366 0.25154,2.64121 0,0.68755 -0.01677,1.24934 -0.05031,1.68535 -1.57634,-0.26831 -3.57193,-0.40247 -5.98675,-0.40247 -2.41482,0 -4.3601,0.0335 -5.83583,0.10062 0,4.39364 0.11739,8.06618 0.35216,11.01764 z"
       style="fill:#ffffff;fill-opacity:1" />
    <path
       inkscape:connector-curvature="0"
       id="path26"
       d="m 97.91834,52.84557 c -1.20741,0.30185 -2.30582,0.45278 -3.29523,0.45278 -0.98941,0 -1.63504,-0.0168 -1.93689,-0.0503 -0.40247,-1.40865 -1.22418,-4.56133 -2.46513,-9.45806 -2.8173,-11.3698 -5.04765,-18.89935 -6.69108,-22.58867 1.40865,-0.67078 2.6496,-1.00618 3.72285,-1.00618 1.07326,0 1.79435,0.0168 2.16328,0.0503 1.5428,11.77227 3.5887,21.18002 6.13768,28.22326 l 0.30186,0 c 1.03972,-2.54898 2.03751,-6.07898 2.99338,-10.59001 0.95587,-4.51103 1.68535,-8.74535 2.18843,-12.70298 1.00618,-0.40247 1.83627,-0.60371 2.49029,-0.60371 0.65401,0 1.24934,0.0335 1.78596,0.10062 1.50927,10.19592 3.35392,18.12795 5.53397,23.79608 l 0.30186,0 c 1.30803,-3.72285 2.53221,-8.52735 3.67255,-14.41348 1.14033,-5.88613 1.79435,-10.38878 1.96204,-13.50792 0.46955,-0.10062 0.9391,-0.15093 1.40865,-0.15093 1.64342,0 3.00176,0.33539 4.07502,1.00618 -0.60371,1.50927 -2.00397,6.10414 -4.20079,13.78462 -2.19682,7.68048 -3.81509,13.56662 -4.8548,17.6584 -1.20741,0.30185 -2.30582,0.45278 -3.29523,0.45278 -0.98941,0 -1.63504,-0.0168 -1.93689,-0.0503 -0.46955,-1.60988 -1.26611,-4.64518 -2.38967,-9.1059 -1.12356,-4.46072 -1.95366,-7.71402 -2.49029,-9.75992 l -0.25155,0 c -2.24713,8.15003 -3.89055,14.30448 -4.93027,18.46334 z"
       style="fill:#ffffff;fill-opacity:1" />
    <path
       inkscape:connector-curvature="0"
       id="path28"
       d="m 128.35519,45.80233 c 1.00618,1.40865 2.23874,2.52383 3.6977,3.34554 1.45896,0.82171 3.04368,1.23257 4.75419,1.23257 1.7105,0 3.01015,-0.46955 3.89894,-1.40865 0.88879,-0.9391 1.33318,-2.07943 1.33318,-3.421 0,-1.34157 -0.53663,-2.54898 -1.60988,-3.62224 -1.07326,-1.07326 -2.3729,-1.99558 -3.89894,-2.76699 -1.52603,-0.7714 -3.04368,-1.58473 -4.55295,-2.43998 -1.50927,-0.85525 -2.80053,-2.00397 -3.87378,-3.44616 -1.07326,-1.44219 -1.60988,-3.25331 -1.60988,-5.43335 0,-2.18005 0.77979,-4.04986 2.33936,-5.60944 1.55957,-1.55957 3.99955,-2.33936 7.31994,-2.33936 3.32038,0 5.76036,0.82171 7.31994,2.46513 1.55957,1.64342 2.33936,3.78993 2.33936,6.43953 0,0.40247 -0.0503,0.82171 -0.15093,1.25772 -0.87202,0.30185 -1.74404,0.45278 -2.61606,0.45278 -0.87202,0 -1.50927,-0.0335 -1.91174,-0.10062 0.0335,-0.26831 0.0503,-0.62048 0.0503,-1.05649 0,-1.94528 -0.51147,-3.51323 -1.53442,-4.70388 -1.02295,-1.19064 -2.30582,-1.78596 -3.84863,-1.78596 -1.5428,0 -2.7586,0.41086 -3.64739,1.23257 -0.88879,0.82171 -1.33318,1.97881 -1.33318,3.47131 0,1.4925 0.52824,2.78376 1.58473,3.87378 1.05649,1.09002 2.34775,2.03751 3.87378,2.84245 1.52603,0.80494 3.05207,1.65181 4.5781,2.5406 1.52603,0.88879 2.8173,2.07943 3.87378,3.57193 1.05649,1.4925 1.58473,3.33715 1.58473,5.53397 0,2.19682 -0.89717,4.02471 -2.69152,5.48366 -1.79435,1.45896 -3.99955,2.18843 -6.61561,2.18843 -4.72903,0 -8.45189,-1.27449 -11.16856,-3.82347 0.13416,-0.80494 0.41086,-1.5428 0.8301,-2.21359 0.41924,-0.67078 0.81333,-1.12356 1.18226,-1.35834 l 0.50307,-0.40245 z"
       style="fill:#ffffff;fill-opacity:1" />
    <path
       inkscape:connector-curvature="0"
       id="path30"
       d="m 179.67021,38.60817 c -1.44219,-0.23477 -3.52162,-0.35216 -6.2383,-0.35216 -2.71668,0 -4.37687,0.0168 -4.98058,0.0503 0.0671,8.11649 0.35216,12.92937 0.85525,14.43864 -1.10679,0.33539 -1.9872,0.50309 -2.64121,0.50309 -0.65401,0 -1.55119,-0.0335 -2.69152,-0.10062 0.46955,-3.92409 0.70432,-9.3826 0.70432,-16.37553 0,-6.99293 -0.31862,-12.46821 -0.95587,-16.42584 2.24713,0.23477 4.5781,0.35216 6.99293,0.35216 2.41482,0 4.6368,-0.0755 6.66592,-0.22639 2.02912,-0.15093 3.34554,-0.31024 3.94924,-0.47793 0.13416,0.60371 0.20124,1.27449 0.20124,2.01235 0,0.73786 -0.13416,1.5428 -0.40247,2.41482 -1.77758,-0.30185 -3.99117,-0.45278 -6.64077,-0.45278 -2.6496,0 -4.56133,0.0503 -5.73521,0.15093 -0.20124,2.01235 -0.30185,5.70167 -0.30185,11.06794 l 2.2136,10e-6 c 4.5278,0 7.46248,-0.1677 8.80405,-0.50309 0.1677,0.9391 0.25154,1.72727 0.25154,2.36452 0,0.63725 -0.0168,1.1571 -0.0503,1.55957 z"
       style="fill:#ffffff;fill-opacity:1" />
    <path
       inkscape:connector-curvature="0"
       id="path32"
       d="m 185.75758,36.39458 c 0,-11.00087 4.11694,-16.5013 12.35082,-16.5013 8.23388,0 12.35082,5.50043 12.35082,16.5013 0,2.01235 -0.0755,3.77316 -0.22639,5.28243 -0.15093,1.50927 -0.48632,3.05207 -1.00618,4.62841 -0.51986,1.57634 -1.2158,2.8676 -2.08782,3.87378 -0.87202,1.00618 -2.07105,1.82789 -3.59708,2.46513 -1.52603,0.63725 -3.33715,0.95587 -5.43335,0.95587 -2.0962,0 -3.90732,-0.31862 -5.43335,-0.95587 -1.52603,-0.63725 -2.72506,-1.45896 -3.59708,-2.46513 -0.87202,-1.00618 -1.56796,-2.29744 -2.08782,-3.87378 -0.51986,-1.57634 -0.85525,-3.11915 -1.00618,-4.62841 -0.15093,-1.50927 -0.22639,-3.27007 -0.22639,-5.28243 z m 8.09972,12.37597 c 1.14033,0.73786 2.55737,1.10679 4.2511,1.10679 1.69373,0 3.11915,-0.36893 4.27625,-1.10679 1.1571,-0.73786 2.02074,-1.79435 2.59091,-3.16946 1.00618,-2.38129 1.50927,-5.43335 1.50927,-9.15621 0,-9.05559 -2.79214,-13.58339 -8.37642,-13.58339 -5.58428,0 -8.37642,4.5278 -8.37642,13.58339 0,6.47307 1.37511,10.58163 4.12532,12.32567 z"
       y="0"
       x="0"
       style="fill:#ffffff;fill-opacity:1" />
    <path
       inkscape:connector-curvature="0"
       id="path34"
       d="m 225.75311,35.28778 c 0.97264,0.90556 2.13813,1.35834 3.49646,1.35834 1.35834,0 2.45675,-0.40247 3.29523,-1.20741 1.34157,-1.27449 2.01235,-3.16946 2.01235,-5.6849 0,-4.66195 -2.21359,-6.99293 -6.64077,-6.99293 -1.40865,0 -2.98499,0.33539 -4.72903,1.00618 -0.23477,2.68314 -0.35216,7.73079 -0.35216,15.14296 0,7.41217 0.28508,12.02381 0.85525,13.83493 -1.10679,0.33539 -2.12974,0.50309 -3.06884,0.50309 -0.9391,0 -1.69373,-0.0335 -2.2639,-0.10062 0.46955,-3.92409 0.70432,-9.40775 0.70432,-16.45099 0,-7.04324 -0.28508,-12.17474 -0.85525,-15.39451 2.8173,-0.9391 6.0706,-1.40865 9.75992,-1.40865 7.31155,0 10.96733,3.28684 10.96733,9.86053 0,2.4819 -0.62048,4.61164 -1.86143,6.38922 -1.24095,1.77758 -3.11915,2.90114 -5.63459,3.37069 3.55516,5.66813 6.50661,10.02823 8.85436,13.0803 -1.14033,0.57017 -2.2639,0.85525 -3.37069,0.85525 -1.10679,0 -1.84466,-0.0168 -2.21359,-0.0503 -1.77758,-3.75639 -4.39364,-8.35127 -7.84818,-13.78462 -0.67078,-0.10062 -1.39188,-0.28508 -2.16328,-0.5534 0,-0.83848 0.11739,-1.61827 0.35216,-2.33936 0.23477,-0.72109 0.46955,-1.19903 0.70432,-1.4338 z"
       style="fill:#ffffff;fill-opacity:1" />
    <path
       inkscape:connector-curvature="0"
       id="path38"
       d="m 297.90923,49.0221 c 1.17387,0.10062 3.203,0.15093 6.08737,0.15093 2.88437,0 5.21535,-0.15093 6.99293,-0.45278 0.26831,0.87202 0.40247,1.71889 0.40247,2.5406 0,0.82171 -0.0671,1.53442 -0.20124,2.13813 -0.63725,-0.1677 -1.97881,-0.32701 -4.02471,-0.47793 -2.04589,-0.15093 -4.34333,-0.22639 -6.89231,-0.22639 -2.54898,0 -4.94704,0.11739 -7.19416,0.35216 0.46955,-4.62841 0.70432,-10.24623 0.70432,-16.85346 0,-6.60723 -0.31862,-11.88966 -0.95587,-15.84728 2.24713,0.23477 4.66195,0.35216 7.24447,0.35216 2.58252,0 4.88834,-0.0755 6.91747,-0.22639 2.02912,-0.15093 3.34554,-0.31024 3.94924,-0.47793 0.13416,0.60371 0.20124,1.27449 0.20124,2.01235 0,0.73786 -0.13416,1.5428 -0.40247,2.41482 -1.77758,-0.30185 -4.07502,-0.45278 -6.89231,-0.45278 -2.8173,0 -4.81288,0.0503 -5.98675,0.15093 -0.20124,1.91174 -0.30185,5.36628 -0.30185,10.36362 0.70432,0.0335 2.39805,0.0503 5.08119,0.0503 2.68314,0 4.86319,-0.18447 6.54015,-0.5534 0.1677,1.07326 0.25154,1.95366 0.25154,2.64121 0,0.68755 -0.0168,1.24934 -0.0503,1.68535 -1.57634,-0.26831 -3.57193,-0.40247 -5.98675,-0.40247 -2.41482,0 -4.3601,0.0335 -5.83583,0.10062 0,4.39364 0.11739,8.06618 0.35216,11.01764 z"
       style="fill:#ffffff;fill-opacity:1" />
    <path
       inkscape:connector-curvature="0"
       id="path40"
       d="m 328.29577,23.96829 c -0.1677,2.61606 -0.25154,7.6134 -0.25154,14.99203 0,7.37863 0.28508,11.9735 0.85525,13.78462 -1.10679,0.33539 -2.12974,0.50309 -3.06884,0.50309 -0.9391,0 -1.69373,-0.0335 -2.2639,-0.10062 0.46955,-3.92409 0.70432,-9.06398 0.70432,-15.41966 0,-6.35568 -0.11739,-10.94217 -0.35216,-13.75947 -4.59487,0.20124 -7.5631,0.43601 -8.90466,0.70432 -0.13416,-0.46955 -0.20124,-1.10679 -0.20124,-1.91174 0,-0.80494 0.13416,-1.64342 0.40247,-2.51544 2.4819,0.30185 5.48366,0.45278 9.00528,0.45278 7.11032,0 11.50395,-0.23477 13.18092,-0.70432 0.13416,0.60371 0.20124,1.27449 0.20124,2.01235 0,0.73786 -0.13416,1.5428 -0.40247,2.41482 -2.58252,-0.23477 -5.55074,-0.3857 -8.90466,-0.45278 z"
       style="fill:#ffffff;fill-opacity:1" />
    <path
       inkscape:connector-curvature="0"
       id="path42"
       d="m 352.49432,23.96829 c -0.1677,2.61606 -0.25154,7.6134 -0.25154,14.99203 0,7.37863 0.28508,11.9735 0.85525,13.78462 -1.10679,0.33539 -2.12974,0.50309 -3.06884,0.50309 -0.9391,0 -1.69373,-0.0335 -2.2639,-0.10062 0.46955,-3.92409 0.70432,-9.06398 0.70432,-15.41966 0,-6.35568 -0.11739,-10.94217 -0.35216,-13.75947 -4.59487,0.20124 -7.5631,0.43601 -8.90466,0.70432 -0.13416,-0.46955 -0.20124,-1.10679 -0.20124,-1.91174 0,-0.80494 0.13416,-1.64342 0.40247,-2.51544 2.4819,0.30185 5.48366,0.45278 9.00528,0.45278 7.11032,0 11.50395,-0.23477 13.18092,-0.70432 0.13416,0.60371 0.20124,1.27449 0.20124,2.01235 0,0.73786 -0.13416,1.5428 -0.40247,2.41482 -2.58252,-0.23477 -5.55074,-0.3857 -8.90466,-0.45278 z"
       style="fill:#ffffff;fill-opacity:1" />
    <path
       inkscape:connector-curvature="0"
       id="path44"
       d="m 362.65671,20.94976 c 1.34157,-0.57017 2.55737,-0.85525 3.64739,-0.85525 1.09002,0 1.8195,0.0168 2.18843,0.0503 0.20124,2.51544 0.98941,5.39982 2.36452,8.65312 0.53663,1.20741 1.24934,2.80053 2.13813,4.77934 0.88879,1.97881 1.55119,3.48808 1.9872,4.5278 l 0.20123,0 c 1.17387,-2.24713 2.35613,-5.20696 3.54677,-8.87951 1.19064,-3.67255 1.85304,-6.68269 1.9872,-9.03044 0.60371,-0.0671 1.05649,-0.10062 1.35834,-0.10062 1.57634,0 2.88437,0.28508 3.92409,0.85525 -0.0335,0.10062 -0.59532,1.33318 -1.68535,3.6977 -1.09002,2.36452 -2.05428,4.48587 -2.89276,6.36407 -2.51544,5.63459 -4.07502,9.6593 -4.67872,12.07412 0.1677,5.46689 0.43601,8.68666 0.80494,9.6593 -1.10679,0.33539 -2.12974,0.50309 -3.06884,0.50309 -0.9391,0 -1.69373,-0.0335 -2.2639,-0.10062 0.33539,-2.75022 0.5534,-6.15445 0.65401,-10.21269 -0.7714,-2.44836 -1.90335,-5.22373 -3.39585,-8.32611 -1.4925,-3.10238 -2.90114,-5.95321 -4.22594,-8.5525 -1.3248,-2.59929 -2.18843,-4.30141 -2.59091,-5.10635 z"
       style="fill:#ffffff;fill-opacity:1" />
    <path
       inkscape:connector-curvature="0"
       id="path36-7"
       d="m 258.05944,52.65667 c 0.59858,-5.00236 0.89786,-11.78975 0.89786,-20.362183 0,-8.57242 -0.36342,-14.910898 -1.09026,-19.015394 3.37767,-1.197149 7.34321,-1.795723 11.89665,-1.795723 4.55343,0 7.89903,1.026124 10.03679,3.078372 2.13776,2.052248 3.20664,5.055803 3.20664,9.010665 0,3.954862 -1.36818,6.958417 -4.10451,9.010665 4.57481,1.795724 6.86222,5.066499 6.86222,9.812322 0,8.037976 -4.89547,12.056976 -14.68642,12.056976 -5.17339,0 -9.51305,-0.59857 -13.01897,-1.79572 z m 9.42753,-23.023688 c 0.94062,0.64133 2.38361,0.961989 4.32898,0.961989 1.94536,0 3.36697,-0.673391 4.26484,-2.020187 0.89785,-1.346796 1.34679,-3.131824 1.34679,-5.355097 0,-2.223273 -0.60926,-4.125887 -1.82778,-5.707829 -1.21853,-1.581942 -3.23872,-2.37292 -6.06056,-2.37292 -1.58195,0 -3.33491,0.384794 -5.25889,1.154393 -0.34204,3.463178 -0.51307,8.57242 -0.51307,15.327752 0,6.755331 0.17103,12.399017 0.51307,16.931067 2.47981,0.98337 4.7672,1.47505 6.86222,1.47505 6.02849,0 9.04274,-2.54393 9.04274,-7.631806 0,-4.318274 -1.98812,-6.92634 -5.96436,-7.824208 -1.15439,0.213781 -2.37292,0.320659 -3.65556,0.320659 -1.28267,0 -2.75772,-0.320659 -4.42517,-0.96199 0,-1.966735 0.44893,-3.399044 1.34679,-4.296899 z"
       y="0"
       x="0"
       style="fill:#ffffff;fill-opacity:1" />
  </g>
</svg>
